<?xml version="1.0" standalone="no"?>
<!DOCTYPE svg PUBLIC "-//W3C//DTD SVG 20010904//EN"
 "http://www.w3.org/TR/2001/REC-SVG-20010904/DTD/svg10.dtd">
<svg version="1.0" xmlns="http://www.w3.org/2000/svg"
 width="1954.000000pt" height="1954.000000pt" viewBox="0 0 1954.000000 1954.000000"
 preserveAspectRatio="xMidYMid meet">
<metadata>
Created by potrace 1.14, written by Peter Selinger 2001-2017
</metadata>
<g transform="translate(0.000000,1954.000000) scale(0.100000,-0.100000)"
fill="#000000" stroke="none">
<path d="M11775 19519 c-254 -34 -514 -95 -762 -180 -65 -22 -127 -44 -138
-49 -11 -5 -69 -30 -130 -56 -254 -109 -536 -274 -749 -438 -128 -99 -135
-104 -189 -111 -29 -4 -59 -8 -67 -10 -8 -2 -31 -6 -50 -10 -193 -35 -494
-145 -832 -304 -49 -23 -127 -60 -175 -82 -49 -23 -236 -106 -418 -186 -181
-80 -348 -153 -370 -163 -22 -10 -83 -37 -135 -60 -52 -23 -108 -48 -125 -55
-49 -22 -1189 -523 -1322 -581 -67 -29 -142 -62 -165 -73 -24 -10 -97 -43
-163 -71 -66 -29 -147 -65 -180 -80 -33 -15 -89 -40 -125 -55 -36 -15 -83 -36
-105 -46 -22 -10 -195 -86 -385 -169 -190 -83 -363 -160 -385 -170 -22 -10
-114 -50 -205 -90 -91 -39 -183 -80 -205 -90 -121 -55 -177 -80 -181 -80 -3 0
-31 -12 -62 -26 -31 -15 -109 -49 -172 -76 -63 -28 -143 -63 -177 -79 -34 -16
-91 -40 -125 -55 -35 -14 -83 -35 -107 -46 -23 -11 -140 -62 -260 -115 -119
-52 -234 -103 -256 -113 -22 -10 -78 -34 -125 -55 -90 -39 -129 -56 -195 -86
-22 -9 -117 -51 -210 -92 -94 -41 -192 -84 -217 -96 -26 -11 -49 -21 -52 -21
-2 0 -37 -15 -78 -34 -40 -19 -201 -90 -358 -159 -380 -166 -356 -153 -434
-227 -381 -358 -610 -701 -763 -1144 -29 -85 -76 -255 -89 -321 -2 -11 -8 -42
-13 -70 -43 -219 -50 -636 -16 -855 8 -45 24 -139 29 -165 13 -63 59 -233 84
-305 l28 -84 -56 -100 c-144 -260 -265 -607 -305 -876 -31 -202 -38 -301 -38
-495 0 -97 9 -250 17 -290 2 -11 7 -47 10 -80 10 -81 59 -308 92 -413 43 -142
111 -308 182 -447 l68 -132 -48 -72 c-67 -98 -159 -266 -208 -378 -37 -84
-106 -271 -115 -312 -2 -9 -15 -61 -29 -116 -27 -106 -32 -134 -42 -205 -3
-25 -8 -47 -9 -50 -24 -40 -24 -625 -1 -691 3 -8 7 -32 10 -54 14 -126 82
-374 146 -535 23 -58 74 -168 114 -246 68 -130 73 -142 60 -165 -11 -20 -57
-123 -109 -244 -71 -164 -157 -504 -179 -710 -25 -223 -25 -514 -1 -680 36
-251 50 -316 109 -510 152 -497 463 -969 861 -1305 90 -76 318 -248 475 -360
58 -41 106 -78 108 -82 2 -5 9 -8 16 -8 7 0 22 -9 33 -19 21 -20 480 -325 563
-375 66 -39 223 -134 240 -145 8 -6 56 -34 105 -63 50 -29 99 -58 110 -65 11
-7 27 -16 35 -20 8 -4 47 -25 85 -47 235 -133 708 -375 940 -481 33 -15 94
-43 135 -62 413 -191 1010 -421 1490 -575 203 -65 560 -171 650 -193 8 -2 121
-31 250 -64 129 -32 249 -62 265 -64 17 -3 68 -14 115 -26 47 -11 97 -22 110
-25 14 -2 93 -18 176 -35 82 -16 166 -33 185 -36 19 -3 84 -15 144 -25 61 -11
125 -22 143 -25 17 -3 44 -7 60 -10 77 -12 171 -27 202 -31 19 -2 53 -7 75
-10 22 -3 54 -7 70 -9 161 -23 418 -53 510 -60 28 -2 73 -6 100 -9 28 -3 79
-8 115 -11 36 -2 97 -7 135 -10 457 -37 1362 -42 1850 -11 173 12 253 17 290
21 22 3 74 7 115 10 41 3 91 7 110 9 19 2 67 7 105 11 39 4 77 8 85 10 8 1 47
6 85 9 39 4 81 9 95 11 27 4 85 12 153 20 23 3 53 8 67 10 14 2 45 7 70 10 25
3 74 11 110 16 36 6 81 12 100 15 19 2 46 6 60 9 14 3 36 7 50 10 352 61 584
108 855 171 11 3 31 7 45 10 128 26 571 148 920 252 85 26 459 150 485 161 11
5 85 32 165 61 148 54 447 168 510 196 58 25 83 36 170 72 14 6 56 25 93 41
38 17 70 31 73 31 2 0 43 18 91 41 49 22 97 44 108 49 82 36 577 282 690 342
216 116 248 134 425 236 360 208 757 461 985 626 133 97 281 229 405 362 85
92 143 164 252 314 86 119 217 364 286 535 40 99 107 299 115 346 3 13 12 51
20 84 15 60 23 98 33 165 2 19 9 62 14 95 31 202 31 528 -1 750 -6 39 -12 81
-14 95 -20 138 -86 384 -144 535 -17 44 -31 85 -31 93 0 7 17 36 38 65 88 119
196 318 265 487 320 779 233 1669 -230 2368 -46 69 -83 128 -83 133 0 4 18 40
39 81 112 211 233 570 265 783 3 22 9 57 12 79 3 21 7 48 10 60 23 121 24 536
0 696 -2 14 -7 49 -11 79 -3 30 -9 63 -11 75 -2 12 -11 68 -20 126 -9 58 -17
114 -19 125 -2 11 -6 40 -9 65 -4 24 -9 46 -11 48 -2 2 19 41 47 86 53 85 149
266 185 351 86 199 170 498 197 705 27 205 28 547 2 710 -3 14 -7 43 -10 65
-7 55 -35 193 -47 231 -5 17 -12 42 -14 55 -19 99 -114 346 -193 504 -89 178
-228 391 -340 520 -184 212 -222 245 -362 318 -105 55 -291 153 -380 200 -41
22 -109 58 -150 80 -41 22 -106 56 -145 77 -38 21 -124 66 -190 100 -66 35
-151 80 -190 100 -38 21 -115 61 -170 90 -55 29 -127 67 -160 85 -33 18 -109
59 -170 90 -60 32 -164 87 -230 122 -66 35 -142 75 -170 89 -27 14 -104 54
-170 90 -66 36 -138 74 -160 85 -22 11 -67 34 -100 52 -33 18 -127 68 -210
111 -82 43 -172 91 -200 106 -27 15 -88 47 -133 71 -46 24 -118 62 -160 84
-43 23 -135 72 -207 109 -71 38 -157 83 -190 101 -33 18 -105 56 -160 85 -55
29 -131 70 -170 90 -38 21 -108 58 -155 82 -159 84 -285 151 -355 188 -38 21
-124 66 -190 100 -66 34 -145 76 -175 93 -30 17 -63 34 -72 39 -26 12 -56 28
-113 59 -27 14 -90 48 -140 73 -49 26 -94 51 -99 56 -4 4 5 32 21 62 61 111
121 284 137 393 4 23 9 52 12 65 3 14 7 81 8 150 5 219 -24 388 -101 580 -138
343 -410 632 -737 780 -69 31 -224 85 -273 95 -194 38 -377 42 -588 14z"/>
</g>
</svg>
